<svg xmlns="http://www.w3.org/2000/svg" viewBox="33 0 400 240" role="img" aria-label="ML debuggability: an unbalanced decision tree where edge thickness shows training frequency, with one datapoint&#39;s inference path highlighted in red">
  <g fill="none" stroke-linecap="round">
    <path d="M200 36L298 78" stroke="#64748b" stroke-width="5.65" opacity="0.81"></path>
    <path d="M200 36L150 78" stroke="#64748b" stroke-width="3.52" opacity="0.54"></path>
    <path d="M298 78L262 120" stroke="#64748b" stroke-width="5.22" opacity="0.76"></path>
    <path d="M298 78L350 120" stroke="#64748b" stroke-width="3.52" opacity="0.54"></path>
    <path d="M350 120L350 162" stroke="#64748b" stroke-width="3.10" opacity="0.48"></path>
    <path d="M262 120L250 162" stroke="#64748b" stroke-width="4.80" opacity="0.70"></path>
    <path d="M262 120L298 162" stroke="#64748b" stroke-width="2.67" opacity="0.43"></path>
    <path d="M250 162L270 200" stroke="#64748b" stroke-width="4.38" opacity="0.65"></path>
    <path d="M250 162L230 200" stroke="#64748b" stroke-width="2.67" opacity="0.43"></path>
    <path d="M150 78L190 120" stroke="#64748b" stroke-width="3.10" opacity="0.48"></path>
    <path d="M150 78L116 120" stroke="#64748b" stroke-width="2.25" opacity="0.37"></path>
    <path d="M190 120L162 162" stroke="#64748b" stroke-width="2.25" opacity="0.37"></path>
    <path d="M190 120L208 162" stroke="#64748b" stroke-width="2.67" opacity="0.43"></path>
  </g>
  <g fill="none" stroke-linecap="round">
    <path d="M200 36L298 78" stroke="#ea4335" stroke-width="3.4"></path>
    <path d="M298 78L350 120" stroke="#ea4335" stroke-width="3.4"></path>
    <path d="M350 120L350 162" stroke="#ea4335" stroke-width="3.4"></path>
  </g>
    <rect x="187" y="23" width="26" height="26" rx="3" transform="rotate(45 200 36)" fill="#ea4335" fill-opacity="0.16" stroke="#ea4335" stroke-width="3" opacity="1"></rect>
    <rect x="137" y="65" width="26" height="26" rx="3" transform="rotate(45 150 78)" fill="none" fill-opacity="1" stroke="#94a3b8" stroke-width="2" opacity="0.6"></rect>
    <rect x="285" y="65" width="26" height="26" rx="3" transform="rotate(45 298 78)" fill="#ea4335" fill-opacity="0.16" stroke="#ea4335" stroke-width="3" opacity="1"></rect>
    <rect x="103" y="107" width="26" height="26" rx="3" transform="rotate(45 116 120)" fill="none" fill-opacity="1" stroke="#94a3b8" stroke-width="2" opacity="0.6"></rect>
    <rect x="177" y="107" width="26" height="26" rx="3" transform="rotate(45 190 120)" fill="none" fill-opacity="1" stroke="#94a3b8" stroke-width="2" opacity="0.6"></rect>
    <rect x="249" y="107" width="26" height="26" rx="3" transform="rotate(45 262 120)" fill="#64748b" fill-opacity="0.16" stroke="#64748b" stroke-width="2.4" opacity="0.85"></rect>
    <rect x="337" y="107" width="26" height="26" rx="3" transform="rotate(45 350 120)" fill="#ea4335" fill-opacity="0.16" stroke="#ea4335" stroke-width="3" opacity="1"></rect>
    <rect x="149" y="149" width="26" height="26" rx="3" transform="rotate(45 162 162)" fill="none" fill-opacity="1" stroke="#94a3b8" stroke-width="2" opacity="0.6"></rect>
    <rect x="195" y="149" width="26" height="26" rx="3" transform="rotate(45 208 162)" fill="none" fill-opacity="1" stroke="#94a3b8" stroke-width="2" opacity="0.6"></rect>
    <rect x="237" y="149" width="26" height="26" rx="3" transform="rotate(45 250 162)" fill="#64748b" fill-opacity="0.16" stroke="#64748b" stroke-width="2.4" opacity="0.85"></rect>
    <rect x="285" y="149" width="26" height="26" rx="3" transform="rotate(45 298 162)" fill="none" fill-opacity="1" stroke="#94a3b8" stroke-width="2" opacity="0.6"></rect>
    <rect x="337" y="149" width="26" height="26" rx="3" transform="rotate(45 350 162)" fill="#ea4335" fill-opacity="0.16" stroke="#ea4335" stroke-width="3" opacity="1"></rect>
    <rect x="217" y="187" width="26" height="26" rx="3" transform="rotate(45 230 200)" fill="none" fill-opacity="1" stroke="#94a3b8" stroke-width="2" opacity="0.6"></rect>
    <rect x="257" y="187" width="26" height="26" rx="3" transform="rotate(45 270 200)" fill="#64748b" fill-opacity="0.16" stroke="#64748b" stroke-width="2.4" opacity="0.85"></rect>
    <text x="350" y="198" font-family="&#39;Open Sans&#39;,system-ui,sans-serif" font-size="10" font-weight="600" fill="#ea4335" text-anchor="middle">predicted</text>
    <text x="270" y="232" font-family="&#39;Open Sans&#39;,system-ui,sans-serif" font-size="10" font-weight="600" fill="#64748b" text-anchor="middle">training</text>
</svg>