<svg xmlns="http://www.w3.org/2000/svg" viewBox="0 0 400 240" role="img" aria-label="City map with a large central park: the blue safest route follows main streets around the park, the red shortest route takes a diagonal boulevard that ends at the park and cuts a pedestrian shortcut through it.">
<rect x="0" y="0" width="400" height="240" fill="#e8e6e0"></rect>
<g>
<rect x="-19" y="-25" width="19.0" height="19.0" rx="2.5" fill="#ded9cf"></rect>
<rect x="-19" y="2" width="19.0" height="16.0" rx="2.5" fill="#d6d1c6"></rect>
<rect x="-19" y="26" width="19.0" height="22.0" rx="2.5" fill="#dad5cb"></rect>
<rect x="-19" y="56" width="19.0" height="30.0" rx="2.5" fill="#e0dbd1"></rect>
<rect x="-19" y="94" width="19.0" height="26.0" rx="2.5" fill="#ded9cf"></rect>
<rect x="-19" y="128" width="19.0" height="28.0" rx="2.5" fill="#d6d1c6"></rect>
<rect x="-19" y="164" width="19.0" height="22.0" rx="2.5" fill="#dad5cb"></rect>
<rect x="-19" y="194" width="19.0" height="18.0" rx="2.5" fill="#e0dbd1"></rect>
<rect x="-19" y="220" width="19.0" height="17.0" rx="2.5" fill="#ded9cf"></rect>
<rect x="8" y="-25" width="18.0" height="19.0" rx="2.5" fill="#dad5cb"></rect>
<rect x="8" y="2" width="18.0" height="16.0" rx="2.5" fill="#e0dbd1"></rect>
<rect x="8" y="26" width="18.0" height="22.0" rx="2.5" fill="#ded9cf"></rect>
<rect x="8" y="56" width="18.0" height="30.0" rx="2.5" fill="#d6d1c6"></rect>
<rect x="8" y="94" width="18.0" height="26.0" rx="2.5" fill="#dad5cb"></rect>
<rect x="8" y="128" width="18.0" height="28.0" rx="2.5" fill="#e0dbd1"></rect>
<rect x="8" y="164" width="18.0" height="22.0" rx="2.5" fill="#ded9cf"></rect>
<rect x="8" y="194" width="18.0" height="18.0" rx="2.5" fill="#d6d1c6"></rect>
<rect x="8" y="220" width="18.0" height="17.0" rx="2.5" fill="#dad5cb"></rect>
<rect x="34" y="-25" width="20.0" height="19.0" rx="2.5" fill="#ded9cf"></rect>
<rect x="34" y="2" width="20.0" height="16.0" rx="2.5" fill="#d6d1c6"></rect>
<rect x="34" y="26" width="20.0" height="22.0" rx="2.5" fill="#dad5cb"></rect>
<rect x="34" y="56" width="20.0" height="30.0" rx="2.5" fill="#e0dbd1"></rect>
<rect x="34" y="94" width="20.0" height="26.0" rx="2.5" fill="#ded9cf"></rect>
<rect x="34" y="128" width="20.0" height="28.0" rx="2.5" fill="#d6d1c6"></rect>
<rect x="34" y="164" width="20.0" height="22.0" rx="2.5" fill="#dad5cb"></rect>
<rect x="34" y="194" width="20.0" height="18.0" rx="2.5" fill="#e0dbd1"></rect>
<rect x="34" y="220" width="20.0" height="17.0" rx="2.5" fill="#ded9cf"></rect>
<rect x="62" y="-25" width="26.0" height="19.0" rx="2.5" fill="#dad5cb"></rect>
<rect x="62" y="2" width="26.0" height="16.0" rx="2.5" fill="#e0dbd1"></rect>
<rect x="62" y="26" width="26.0" height="22.0" rx="2.5" fill="#ded9cf"></rect>
<rect x="62" y="56" width="26.0" height="30.0" rx="2.5" fill="#d6d1c6"></rect>
<rect x="62" y="94" width="26.0" height="26.0" rx="2.5" fill="#dad5cb"></rect>
<rect x="62" y="128" width="26.0" height="28.0" rx="2.5" fill="#e0dbd1"></rect>
<rect x="62" y="164" width="26.0" height="22.0" rx="2.5" fill="#ded9cf"></rect>
<rect x="62" y="194" width="26.0" height="18.0" rx="2.5" fill="#d6d1c6"></rect>
<rect x="62" y="220" width="26.0" height="17.0" rx="2.5" fill="#dad5cb"></rect>
<rect x="96" y="-25" width="28.0" height="19.0" rx="2.5" fill="#ded9cf"></rect>
<rect x="96" y="2" width="28.0" height="16.0" rx="2.5" fill="#d6d1c6"></rect>
<rect x="96" y="26" width="28.0" height="22.0" rx="2.5" fill="#dad5cb"></rect>
<rect x="96" y="56" width="28.0" height="30.0" rx="2.5" fill="#e0dbd1"></rect>
<rect x="96" y="128" width="28.0" height="28.0" rx="2.5" fill="#d6d1c6"></rect>
<rect x="96" y="164" width="28.0" height="22.0" rx="2.5" fill="#dad5cb"></rect>
<rect x="96" y="220" width="28.0" height="17.0" rx="2.5" fill="#ded9cf"></rect>
<rect x="132" y="-25" width="30.0" height="19.0" rx="2.5" fill="#dad5cb"></rect>
<rect x="132" y="2" width="30.0" height="16.0" rx="2.5" fill="#e0dbd1"></rect>
<rect x="132" y="26" width="30.0" height="22.0" rx="2.5" fill="#ded9cf"></rect>
<rect x="132" y="56" width="30.0" height="30.0" rx="2.5" fill="#d6d1c6"></rect>
<rect x="132" y="128" width="30.0" height="28.0" rx="2.5" fill="#e0dbd1"></rect>
<rect x="132" y="164" width="30.0" height="22.0" rx="2.5" fill="#ded9cf"></rect>
<rect x="132" y="220" width="30.0" height="17.0" rx="2.5" fill="#dad5cb"></rect>
<rect x="170" y="-25" width="26" height="19" rx="2.5" fill="#ded9cf"></rect>
<rect x="204" y="-25" width="32" height="19" rx="2.5" fill="#d6d1c6"></rect>
<rect x="244" y="-25" width="26" height="19" rx="2.5" fill="#dad5cb"></rect>
<rect x="170" y="2" width="26" height="16" rx="2.5" fill="#d6d1c6"></rect>
<rect x="204" y="2" width="32" height="16" rx="2.5" fill="#dad5cb"></rect>
<rect x="244" y="2" width="26" height="16" rx="2.5" fill="#e0dbd1"></rect>
<rect x="170" y="26" width="26" height="22" rx="2.5" fill="#dad5cb"></rect>
<rect x="204" y="26" width="32" height="22" rx="2.5" fill="#ded9cf"></rect>
<rect x="244" y="26" width="26" height="22" rx="2.5" fill="#d6d1c6"></rect>
<rect x="170" y="194" width="26" height="18" rx="2.5" fill="#e0dbd1"></rect>
<rect x="204" y="194" width="32" height="18" rx="2.5" fill="#ded9cf"></rect>
<rect x="244" y="194" width="26" height="18" rx="2.5" fill="#d6d1c6"></rect>
<rect x="170" y="220" width="26" height="17" rx="2.5" fill="#ded9cf"></rect>
<rect x="204" y="220" width="32" height="17" rx="2.5" fill="#dad5cb"></rect>
<rect x="244" y="220" width="26" height="17" rx="2.5" fill="#e0dbd1"></rect>
<rect x="278" y="-25" width="18.0" height="19.0" rx="2.5" fill="#dad5cb"></rect>
<rect x="278" y="2" width="18.0" height="16.0" rx="2.5" fill="#e0dbd1"></rect>
<rect x="278" y="26" width="18.0" height="22.0" rx="2.5" fill="#ded9cf"></rect>
<rect x="278" y="56" width="18.0" height="30.0" rx="2.5" fill="#d6d1c6"></rect>
<rect x="278" y="94" width="18.0" height="26.0" rx="2.5" fill="#dad5cb"></rect>
<rect x="278" y="128" width="18.0" height="28.0" rx="2.5" fill="#e0dbd1"></rect>
<rect x="278" y="164" width="18.0" height="22.0" rx="2.5" fill="#ded9cf"></rect>
<rect x="278" y="194" width="18.0" height="18.0" rx="2.5" fill="#d6d1c6"></rect>
<rect x="278" y="220" width="18.0" height="17.0" rx="2.5" fill="#dad5cb"></rect>
<rect x="304" y="-25" width="24.0" height="19.0" rx="2.5" fill="#ded9cf"></rect>
<rect x="304" y="2" width="24.0" height="16.0" rx="2.5" fill="#d6d1c6"></rect>
<rect x="304" y="26" width="24.0" height="22.0" rx="2.5" fill="#dad5cb"></rect>
<rect x="304" y="128" width="24.0" height="28.0" rx="2.5" fill="#d6d1c6"></rect>
<rect x="304" y="164" width="24.0" height="22.0" rx="2.5" fill="#dad5cb"></rect>
<rect x="304" y="194" width="24.0" height="18.0" rx="2.5" fill="#e0dbd1"></rect>
<rect x="304" y="220" width="24.0" height="17.0" rx="2.5" fill="#ded9cf"></rect>
<rect x="336" y="-25" width="18.0" height="19.0" rx="2.5" fill="#dad5cb"></rect>
<rect x="336" y="2" width="18.0" height="16.0" rx="2.5" fill="#e0dbd1"></rect>
<rect x="336" y="26" width="18.0" height="22.0" rx="2.5" fill="#ded9cf"></rect>
<rect x="336" y="128" width="18.0" height="28.0" rx="2.5" fill="#e0dbd1"></rect>
<rect x="336" y="164" width="18.0" height="22.0" rx="2.5" fill="#ded9cf"></rect>
<rect x="336" y="194" width="18.0" height="18.0" rx="2.5" fill="#d6d1c6"></rect>
<rect x="336" y="220" width="18.0" height="17.0" rx="2.5" fill="#dad5cb"></rect>
<rect x="362" y="-25" width="16.0" height="19.0" rx="2.5" fill="#ded9cf"></rect>
<rect x="362" y="2" width="16.0" height="16.0" rx="2.5" fill="#d6d1c6"></rect>
<rect x="362" y="26" width="16.0" height="22.0" rx="2.5" fill="#dad5cb"></rect>
<rect x="362" y="56" width="16.0" height="30.0" rx="2.5" fill="#e0dbd1"></rect>
<rect x="362" y="94" width="16.0" height="26.0" rx="2.5" fill="#ded9cf"></rect>
<rect x="362" y="128" width="16.0" height="28.0" rx="2.5" fill="#d6d1c6"></rect>
<rect x="362" y="164" width="16.0" height="22.0" rx="2.5" fill="#dad5cb"></rect>
<rect x="362" y="194" width="16.0" height="18.0" rx="2.5" fill="#e0dbd1"></rect>
<rect x="362" y="220" width="16.0" height="17.0" rx="2.5" fill="#ded9cf"></rect>
<rect x="386" y="-25" width="19.0" height="19.0" rx="2.5" fill="#dad5cb"></rect>
<rect x="386" y="2" width="19.0" height="16.0" rx="2.5" fill="#e0dbd1"></rect>
<rect x="386" y="26" width="19.0" height="22.0" rx="2.5" fill="#ded9cf"></rect>
<rect x="386" y="56" width="19.0" height="30.0" rx="2.5" fill="#d6d1c6"></rect>
<rect x="386" y="94" width="19.0" height="26.0" rx="2.5" fill="#dad5cb"></rect>
<rect x="386" y="128" width="19.0" height="28.0" rx="2.5" fill="#e0dbd1"></rect>
<rect x="386" y="164" width="19.0" height="22.0" rx="2.5" fill="#ded9cf"></rect>
<rect x="386" y="194" width="19.0" height="18.0" rx="2.5" fill="#d6d1c6"></rect>
<rect x="386" y="220" width="19.0" height="17.0" rx="2.5" fill="#dad5cb"></rect>
<rect x="96" y="94" width="66" height="26" rx="2.5" fill="#dad5cb"></rect>
<rect x="304" y="56" width="50" height="64" rx="2.5" fill="#ded9cf"></rect>
<rect x="96" y="194" width="66" height="18" rx="2.5" fill="#dad5cb"></rect>
</g>
<rect x="166" y="52" width="108" height="138" rx="8" fill="#cde3a3"></rect>
<g fill="#a9d6f0"><ellipse cx="208" cy="140" rx="10" ry="22"></ellipse><circle cx="204" cy="122" r="9"></circle><circle cx="213" cy="158" r="8"></circle><ellipse cx="198" cy="144" rx="7" ry="11"></ellipse><circle cx="217" cy="134" r="6.5"></circle></g>
<g fill="#a4cb72" stroke="#8fb85f" stroke-width="0.7">
<circle cx="176" cy="86" r="4"></circle>
<circle cx="192" cy="72" r="4"></circle>
<circle cx="210" cy="74" r="4"></circle>
<circle cx="178" cy="108" r="4"></circle>
<circle cx="228" cy="78" r="4"></circle>
<circle cx="262" cy="92" r="4"></circle>
<circle cx="196" cy="172" r="4"></circle>
<circle cx="238" cy="122" r="4"></circle>
<circle cx="258" cy="116" r="4"></circle>
<circle cx="232" cy="146" r="4"></circle>
<circle cx="248" cy="150" r="4"></circle>
<circle cx="258" cy="134" r="4"></circle>
<circle cx="222" cy="88" r="4"></circle>
<circle cx="218" cy="180" r="4"></circle>
<circle cx="258" cy="168" r="4"></circle>
</g>
<g fill="none" stroke-linecap="round" stroke-linejoin="round">
<g stroke="#ffffff" stroke-width="3.4">
<path d="M30 -12 L30 252"></path>
<path d="M92 -12 L92 124"></path>
<path d="M128 -12 L128 90"></path>
<path d="M128 124 L128 190"></path>
<path d="M128 216 L128 252"></path>
<path d="M300 -12 L300 52"></path>
<path d="M300 124 L300 252"></path>
<path d="M332 -12 L332 52"></path>
<path d="M332 124 L332 252"></path>
<path d="M358 -12 L358 252"></path>
<path d="M-12 22 L412 22"></path>
<path d="M-12 90 L166 90"></path>
<path d="M274 90 L300 90"></path>
<path d="M358 90 L412 90"></path>
<path d="M-12 124 L166 124"></path>
<path d="M274 124 L412 124"></path>
<path d="M-12 160 L166 160"></path>
<path d="M274 160 L412 160"></path>
<path d="M-12 216 L412 216"></path>
<path d="M200 -12 L200 52"></path>
<path d="M240 -12 L240 52"></path>
<path d="M200 190 L200 252"></path>
<path d="M240 190 L240 252"></path>
</g>
<g stroke="#fdf5e0" stroke-width="10.5">
<path d="M58 -12 L58 252"></path>
<path d="M166 -12 L166 252"></path>
<path d="M274 -12 L274 252"></path>
<path d="M382 -12 L382 252"></path>
<path d="M-12 52 L412 52"></path>
<path d="M58 190 L412 190"></path>
</g>
<g stroke="#fdf5e0" stroke-width="10.5" stroke-linecap="butt"><path d="M-12 187 L166 124"></path></g>
</g>
<circle cx="58" cy="52" r="10" fill="none" stroke="#fdf5e0" stroke-width="10.5"></circle>
<circle cx="58" cy="52" r="5" fill="#cde3a3"></circle>
<path d="M30 216 L58 216 L58 190 L382 190 L382 52 L332 52" fill="none" stroke="#7c3aed" stroke-width="5" stroke-linecap="round" stroke-linejoin="round" stroke-dasharray="1.5 7"></path>
<path d="M30 216 L30 172 L166 124 C182 132 184 96 200 92 C214 88 214 114 228 110 C242 106 240 74 252 70 C262 67 266 60 274 52 L332 52" fill="none" stroke="#ea4335" stroke-width="4.6" stroke-linecap="round" stroke-linejoin="round" stroke-dasharray="1.5 7"></path>
<circle cx="30" cy="216" r="7" fill="#7c3aed"></circle><circle cx="30" cy="216" r="2.8" fill="#ffffff"></circle>
<circle cx="332" cy="52" r="7" fill="#7c3aed"></circle><circle cx="332" cy="52" r="2.8" fill="#ffffff"></circle>
<path d="M313 44 L323 52 L313 60" fill="none" stroke="#ea4335" stroke-width="4.2" stroke-linecap="round" stroke-linejoin="round"></path>
<path d="M351 44 L341 52 L351 60" fill="none" stroke="#7c3aed" stroke-width="4.2" stroke-linecap="round" stroke-linejoin="round"></path>
<g font-family="&#39;Open Sans&#39;, system-ui, sans-serif" font-size="11" font-weight="700">
<text x="150" y="206" fill="#7c3aed">safest</text>
<text x="84" y="126" fill="#ea4335">shortest</text>
</g>
</svg>