<svg xmlns="http://www.w3.org/2000/svg" viewBox="0 0 400 240" role="img" aria-label="Vacation rental valuator: a back-to-back population-pyramid of SHAP feature contributions. The rental (house, orange, left) and its market (cluster of homes, slate, right) sit at the top and are weighed against each other across a central &#39;vs&#39; axis to reach an appraised value.">

  
  <g stroke-linejoin="round" stroke-linecap="round">
    <polygon points="133,35 150,21 167,35" fill="#fe6e00" fill-opacity="0.14" stroke="#fe6e00" stroke-width="2.4"></polygon>
    <rect x="137" y="34.5" width="26" height="15.5" rx="1.5" fill="#fe6e00" fill-opacity="0.14" stroke="#fe6e00" stroke-width="2.4"></rect>
    <rect x="146" y="42" width="8" height="8" rx="0.5" fill="#fe6e00" fill-opacity="0.5"></rect>
  </g>
  <text x="150" y="66" font-family="&#39;Open Sans&#39;,system-ui,sans-serif" font-size="9" font-weight="700" letter-spacing="0.12em" fill="#fe6e00" text-anchor="middle">RENTAL</text>

  
  <g stroke-linejoin="round" stroke-linecap="round">
    
    <polygon points="229,33 237,23 245,33" fill="#64748b" fill-opacity="0.1" stroke="#64748b" stroke-opacity="0.5" stroke-width="2"></polygon>
    <rect x="231" y="32.5" width="12" height="17" rx="1.2" fill="#64748b" fill-opacity="0.1" stroke="#64748b" stroke-opacity="0.5" stroke-width="2"></rect>
    <polygon points="257,33 265,23 273,33" fill="#64748b" fill-opacity="0.1" stroke="#64748b" stroke-opacity="0.5" stroke-width="2"></polygon>
    <rect x="259" y="32.5" width="12" height="17" rx="1.2" fill="#64748b" fill-opacity="0.1" stroke="#64748b" stroke-opacity="0.5" stroke-width="2"></rect>
    
    <polygon points="237,38 251,26 265,38" fill="#64748b" fill-opacity="0.92" stroke="#475569" stroke-width="1.4"></polygon>
    <rect x="240" y="37" width="22" height="16.5" rx="1.5" fill="#64748b" fill-opacity="0.92" stroke="#475569" stroke-width="1.4"></rect>
    <rect x="247" y="43" width="7" height="7" rx="0.6" fill="#eef2f7"></rect>
  </g>
  <text x="250" y="66" font-family="&#39;Open Sans&#39;,system-ui,sans-serif" font-size="9" font-weight="700" letter-spacing="0.12em" fill="#64748b" text-anchor="middle">MARKET</text>

  
  <line x1="200" y1="78" x2="200" y2="196" stroke="#6d9eeb" stroke-width="1.5" opacity="0.5" stroke-dasharray="2 3"></line>
  <text x="200" y="50" font-family="&#39;Open Sans&#39;,system-ui,sans-serif" font-size="13" font-weight="400" fill="#6d9eeb" text-anchor="middle">vs</text>

  
  <g>
    <rect x="125" y="84" width="69" height="17" rx="3.5" fill="#fe6e00" fill-opacity="0.55" stroke="#fe6e00" stroke-width="1.3"></rect>
    <rect x="133" y="107" width="61" height="17" rx="3.5" fill="#fe6e00" fill-opacity="0.55" stroke="#fe6e00" stroke-width="1.3"></rect>
    <rect x="139" y="130" width="55" height="17" rx="3.5" fill="#fe6e00" fill-opacity="0.55" stroke="#fe6e00" stroke-width="1.3"></rect>
    <rect x="153" y="153" width="41" height="17" rx="3.5" fill="#fe6e00" fill-opacity="0.55" stroke="#fe6e00" stroke-width="1.3"></rect>
    <rect x="167" y="176" width="27" height="17" rx="3.5" fill="#fe6e00" fill-opacity="0.55" stroke="#fe6e00" stroke-width="1.3"></rect>
  </g>

  
  <g>
    <rect x="206" y="84" width="65" height="17" rx="3.5" fill="#64748b" fill-opacity="0.5" stroke="#64748b" stroke-width="1.3"></rect>
    <rect x="206" y="107" width="49" height="17" rx="3.5" fill="#64748b" fill-opacity="0.5" stroke="#64748b" stroke-width="1.3"></rect>
    <rect x="206" y="130" width="43" height="17" rx="3.5" fill="#64748b" fill-opacity="0.5" stroke="#64748b" stroke-width="1.3"></rect>
    <rect x="206" y="153" width="31" height="17" rx="3.5" fill="#64748b" fill-opacity="0.5" stroke="#64748b" stroke-width="1.3"></rect>
    <rect x="206" y="176" width="29" height="17" rx="3.5" fill="#64748b" fill-opacity="0.5" stroke="#64748b" stroke-width="1.3"></rect>
  </g>

  
  <g font-family="&#39;Open Sans&#39;,system-ui,sans-serif" font-size="8.5" font-weight="600" fill="#5b6470">
    <text x="66" y="95.5" text-anchor="start">Bedrooms</text>
    <text x="66" y="118.5" text-anchor="start">Location</text>
    <text x="66" y="141.5" text-anchor="start">Amenities</text>
    <text x="66" y="164.5" text-anchor="start">Photos</text>
    <text x="66" y="187.5" text-anchor="start">Bldg. type</text>
  </g>

  <text x="200" y="212" font-family="&#39;Open Sans&#39;,system-ui,sans-serif" font-size="7.5" font-weight="700" letter-spacing="0.12em" fill="#94a3b8" text-anchor="middle">APPRAISED VALUE</text>

</svg>